<?xml version="1.0" encoding="utf-8" ?><svg xmlns="http://www.w3.org/2000/svg" xmlns:xlink="http://www.w3.org/1999/xlink" width="1024" height="1024" viewBox="0 0 1024 1024"><path d="M389.041 461.358C387.693 469.488 388.335 484.141 388.304 492.679L388.251 553.42C388.295 561.77 388.859 572.195 387.963 579.984C386.905 589.179 374.77 596.261 366.064 594.015C361.135 592.744 359.095 591.465 355.049 588.22C337.174 574.457 319.519 560.283 301.799 546.324L172.985 444.911C164.197 437.998 110.18 397.612 106.752 392.339C103.915 387.975 103.239 381.732 104.533 376.751C105.556 372.813 107.647 369.696 110.673 367.024C115.87 362.436 121.801 358.533 127.258 354.25C140.628 343.586 154.122 333.079 167.738 322.732L274.5 239.517L336.434 191.387C344.686 185.068 353.71 177.648 361.996 172.177C370.885 167.907 382.064 172.365 386.069 181.303C387.18 183.783 387.865 186.047 387.956 188.576C389.36 227.733 387.568 266.963 388.313 306.138C388.421 311.778 388.05 318.62 388.707 324.089C402.272 324.004 416.076 323.686 429.652 324.699C503.692 330.224 574.507 361.428 627.932 413.147C689.821 473.059 721.639 546.261 722.005 632.702C722.879 712.104 691.768 788.517 635.681 844.727C612.689 867.854 585.796 886.74 556.238 900.517C542.25 907.016 533.394 911.467 517.504 911.589C497.648 911.843 478.532 904.062 464.498 890.014C436.597 862 435.871 818.526 463.479 790.204C477.629 775.688 493.562 774.146 510.551 765.089C555.985 739.142 583.8 686.635 584.424 634.901C584.985 588.447 567.196 545.046 534.592 512.205C513.353 490.813 495.097 480.373 467.451 470.21L459.315 467.516C436.401 461.539 412.645 459.457 389.041 461.358Z"/><path d="M773.205 253.75C806.969 249.155 842.789 275.22 852.352 307.236C857.822 325.296 855.831 344.795 846.823 361.376C837.906 377.815 818.937 397.164 803.191 407.707C789.881 416.619 766.711 428.392 751.325 432.926C746.953 434.1 742.499 434.942 738 435.446C703.963 439.101 675.529 418.633 672.713 383.616C669.931 349.015 689.07 314.576 710.383 288.553C726.207 269.233 748.056 256.048 773.205 253.75Z"/><path d="M566.339 337.514C550.761 331.981 540.747 323.365 533.324 308.237C522.213 285.592 529.324 258.389 537.31 235.761C547.134 207.923 564.273 183.904 591.614 170.968C608.426 162.909 627.615 161.348 645.147 167.916C662.433 174.394 678.613 189.767 685.923 206.579C709.254 260.24 659.867 315.302 613.1 335.174C598.48 341.387 587.048 342.269 571.968 339.234L566.339 337.514Z"/><path d="M819.432 442.705C851.572 437.777 886.98 464.684 895.13 495.48C899.95 513.203 897.403 532.123 888.068 547.941C872.443 574.699 838.743 598.998 808.888 606.929C805.401 607.9 801.852 608.63 798.265 609.114C782.978 611.038 766.128 607.256 754.044 597.603C705.558 558.873 745.676 483.472 786.141 455.457C797.004 447.937 806.364 444.194 819.432 442.705Z"/></svg>