<?xml version="1.0" encoding="utf-8" ?><svg xmlns="http://www.w3.org/2000/svg" xmlns:xlink="http://www.w3.org/1999/xlink" width="1024" height="1024" viewBox="0 0 1024 1024"><path d="M509.735 899.539C506.313 900.07 502.251 900.086 498.778 900.047C411.173 899.074 372.543 790.545 436.385 732.398C441.914 727.362 447.927 721.246 453.226 715.959L497.939 671.65C532.498 637.292 566.665 602.541 600.433 567.405C607.983 559.51 630.303 539.177 634.251 531.845C640.244 520.718 640.111 506.765 634.271 495.601C629.622 486.716 620.744 479.416 613.714 472.401L592.369 451.108L484.108 342.729C471.039 329.85 458.101 316.839 445.294 303.698C439.109 297.409 430.302 289.065 424.948 282.3C417.336 272.805 411.637 261.925 408.167 250.261C400.706 225.779 403.505 199.317 415.923 176.938C428.35 154.497 449.177 137.907 473.828 130.812C498.228 123.599 524.512 126.61 546.649 139.155C561.686 147.548 580.347 167.925 593.21 180.758L630.748 218.063L764.822 351.974L855.988 443.067L885.024 471.899C900.578 487.242 926.226 505.962 907.859 530.277C905.929 532.833 903.123 535.424 900.83 537.717C896.115 542.432 891.325 547.08 886.593 551.782C873.81 564.704 860.94 577.54 847.985 590.29L709.45 728.741L605.305 833.129C596.476 841.977 587.697 850.875 578.969 859.822C558.952 880.264 549.782 890.064 520.83 897.776C517.363 898.388 513.169 899.24 509.735 899.539Z"/><path d="M414.587 347.852C416.191 348.748 424.264 357.103 426.425 359.222L465.673 398.387L531.128 463.342C540.413 472.636 551.421 483.092 559.862 493.017C565.845 500.477 567.099 509.673 565.818 518.913C564.098 531.318 551.441 541.315 542.857 549.831L515.692 576.886L475.043 617.397C466.463 625.926 458.598 634.876 448.842 641.966C416.096 664.739 368.825 661.686 341.389 632.505C318.533 608.197 311.213 574.96 312.466 542.454C314.489 489.956 334.668 437.971 366.956 396.735C379.601 380.903 399.753 362.116 414.587 347.852Z"/><path d="M273.272 234.67C297.931 232.084 321.12 240.837 339.999 255.621C379.239 286.35 392.322 348.955 335.579 368.423C328.79 370.752 323.215 372.194 316.038 372.897C292.738 376.762 264.247 369 244.931 355.816C192.341 319.92 210.018 244.038 273.272 234.67Z"/><path d="M194.498 386.208C235.264 381.208 286.081 414.713 291.034 456.776C292.668 469.986 288.817 483.29 280.38 493.585C266.591 510.609 245.988 516.591 225.121 518.771C184.891 523.046 133.334 502.354 128.572 457.008C124.273 416.083 156.024 389.606 194.498 386.208Z"/><path d="M206.93 561.716C228.644 559.018 255.461 567.347 272.689 580.594C327.022 622.37 304.852 685.347 238.121 693.896C211.477 695.879 186.908 691.584 165.45 674.34C152.887 664.135 144.088 649.318 142.607 633.085C138.934 592.821 168.115 564.879 206.93 561.716Z"/></svg>