<?xml version="1.0" encoding="utf-8" ?><svg xmlns="http://www.w3.org/2000/svg" xmlns:xlink="http://www.w3.org/1999/xlink" width="1024" height="1024" viewBox="0 0 1024 1024"><defs><linearGradient id="bg" x1="512" y1="128" x2="512" y2="896" gradientUnits="userSpaceOnUse"><stop offset="0" stop-color="#2e2e30"/><stop offset="1" stop-color="#0a0a0a"/></linearGradient></defs><g transform="translate(512, 512) scale(1.07) translate(-512, -512)"><path fill="url(#bg)" d="M 896.00 512.00 L 895.94 585.32 L 895.76 612.45 L 895.46 632.75 L 895.04 649.57 L 894.50 664.19 L 893.84 677.24 L 893.06 689.11 L 892.16 700.05 L 891.14 710.22 L 890.00 719.74 L 888.73 728.70 L 887.34 737.17 L 885.83 745.21 L 884.19 752.85 L 882.43 760.15 L 880.54 767.12 L 878.52 773.79 L 876.38 780.19 L 874.10 786.33 L 871.70 792.22 L 869.16 797.88 L 866.49 803.33 L 863.68 808.56 L 860.73 813.60 L 857.65 818.45 L 854.42 823.11 L 851.05 827.59 L 847.53 831.90 L 843.86 836.05 L 840.03 840.03 L 836.05 843.86 L 831.90 847.53 L 827.59 851.05 L 823.11 854.42 L 818.45 857.65 L 813.60 860.73 L 808.56 863.68 L 803.33 866.49 L 797.88 869.16 L 792.22 871.70 L 786.33 874.10 L 780.19 876.38 L 773.79 878.52 L 767.12 880.54 L 760.15 882.43 L 752.85 884.19 L 745.21 885.83 L 737.17 887.34 L 728.70 888.73 L 719.74 890.00 L 710.22 891.14 L 700.05 892.16 L 689.11 893.06 L 677.24 893.84 L 664.19 894.50 L 649.57 895.04 L 632.75 895.46 L 612.45 895.76 L 585.32 895.94 L 512.00 896.00 L 438.68 895.94 L 411.55 895.76 L 391.25 895.46 L 374.43 895.04 L 359.81 894.50 L 346.76 893.84 L 334.89 893.06 L 323.95 892.16 L 313.78 891.14 L 304.26 890.00 L 295.30 888.73 L 286.83 887.34 L 278.79 885.83 L 271.15 884.19 L 263.85 882.43 L 256.88 880.54 L 250.21 878.52 L 243.81 876.38 L 237.67 874.10 L 231.78 871.70 L 226.12 869.16 L 220.67 866.49 L 215.44 863.68 L 210.40 860.73 L 205.55 857.65 L 200.89 854.42 L 196.41 851.05 L 192.10 847.53 L 187.95 843.86 L 183.97 840.03 L 180.14 836.05 L 176.47 831.90 L 172.95 827.59 L 169.58 823.11 L 166.35 818.45 L 163.27 813.60 L 160.32 808.56 L 157.51 803.33 L 154.84 797.88 L 152.30 792.22 L 149.90 786.33 L 147.62 780.19 L 145.48 773.79 L 143.46 767.12 L 141.57 760.15 L 139.81 752.85 L 138.17 745.21 L 136.66 737.17 L 135.27 728.70 L 134.00 719.74 L 132.86 710.22 L 131.84 700.05 L 130.94 689.11 L 130.16 677.24 L 129.50 664.19 L 128.96 649.57 L 128.54 632.75 L 128.24 612.45 L 128.06 585.32 L 128.00 512.00 L 128.06 438.68 L 128.24 411.55 L 128.54 391.25 L 128.96 374.43 L 129.50 359.81 L 130.16 346.76 L 130.94 334.89 L 131.84 323.95 L 132.86 313.78 L 134.00 304.26 L 135.27 295.30 L 136.66 286.83 L 138.17 278.79 L 139.81 271.15 L 141.57 263.85 L 143.46 256.88 L 145.48 250.21 L 147.62 243.81 L 149.90 237.67 L 152.30 231.78 L 154.84 226.12 L 157.51 220.67 L 160.32 215.44 L 163.27 210.40 L 166.35 205.55 L 169.58 200.89 L 172.95 196.41 L 176.47 192.10 L 180.14 187.95 L 183.97 183.97 L 187.95 180.14 L 192.10 176.47 L 196.41 172.95 L 200.89 169.58 L 205.55 166.35 L 210.40 163.27 L 215.44 160.32 L 220.67 157.51 L 226.12 154.84 L 231.78 152.30 L 237.67 149.90 L 243.81 147.62 L 250.21 145.48 L 256.88 143.46 L 263.85 141.57 L 271.15 139.81 L 278.79 138.17 L 286.83 136.66 L 295.30 135.27 L 304.26 134.00 L 313.78 132.86 L 323.95 131.84 L 334.89 130.94 L 346.76 130.16 L 359.81 129.50 L 374.43 128.96 L 391.25 128.54 L 411.55 128.24 L 438.68 128.06 L 512.00 128.00 L 585.32 128.06 L 612.45 128.24 L 632.75 128.54 L 649.57 128.96 L 664.19 129.50 L 677.24 130.16 L 689.11 130.94 L 700.05 131.84 L 710.22 132.86 L 719.74 134.00 L 728.70 135.27 L 737.17 136.66 L 745.21 138.17 L 752.85 139.81 L 760.15 141.57 L 767.12 143.46 L 773.79 145.48 L 780.19 147.62 L 786.33 149.90 L 792.22 152.30 L 797.88 154.84 L 803.33 157.51 L 808.56 160.32 L 813.60 163.27 L 818.45 166.35 L 823.11 169.58 L 827.59 172.95 L 831.90 176.47 L 836.05 180.14 L 840.03 183.97 L 843.86 187.95 L 847.53 192.10 L 851.05 196.41 L 854.42 200.89 L 857.65 205.55 L 860.73 210.40 L 863.68 215.44 L 866.49 220.67 L 869.16 226.12 L 871.70 231.78 L 874.10 237.67 L 876.38 243.81 L 878.52 250.21 L 880.54 256.88 L 882.43 263.85 L 884.19 271.15 L 885.83 278.79 L 887.34 286.83 L 888.73 295.30 L 890.00 304.26 L 891.14 313.78 L 892.16 323.95 L 893.06 334.89 L 893.84 346.76 L 894.50 359.81 L 895.04 374.43 L 895.46 391.25 L 895.76 411.55 L 895.94 438.68 Z"/><path fill="white" d="M506.524 468.691C511.238 468.352 515.971 468.366 520.683 468.735C548.705 471.114 573.134 488.213 589.792 510.105C598.846 522.004 606.077 534.699 617.091 545.471C623.723 551.958 630.244 555.911 637.563 561.396C645.066 567.105 651.917 573.624 657.992 580.834C673.739 599.524 678.554 616.658 676.793 640.92C672.713 697.107 617.947 726.501 566.3 713.179C558.93 711.278 551.901 707.645 544.697 705.194C535.473 701.9 526.915 700.421 517.214 699.522C504.615 699.334 492.077 701.308 480.145 705.359C467.576 709.578 458.546 714.042 444.644 715.745C421.345 718.431 394.934 712.169 376.35 697.873C332.955 664.526 338.053 598.515 380.472 566.665C394.388 556.216 409.048 547.352 419.436 533.065C426.025 524.529 430.633 514.321 437.448 505.987C454.347 485.323 480.221 471.593 506.524 468.691Z"/><path fill="white" d="M457.103 312.666C493.831 309.319 498.164 363.743 494.964 388.824C490.987 419.99 475.274 447.679 440.109 442.842C418.314 438.025 404.326 419.411 401.104 397.936C396.293 365.873 423.333 317.371 457.103 312.666Z"/><path fill="white" d="M564.989 312.206C604.557 311.781 637.165 381.735 617.974 414.603C609.796 428.61 603.658 435.675 588.142 441.213C575.249 444.439 560.612 442.059 550.484 433.052C526.495 411.601 526.141 367.376 534.462 338.797C538.89 323.588 548.677 313.446 564.989 312.206Z"/><path fill="white" d="M662.497 415.174C692.261 414.214 714.369 450.075 717.782 476.27C721.033 501.226 707.89 527.545 683.811 536.684C672.367 539.319 660.119 539.015 650.443 531.584C621.988 509.73 623.767 455.376 641.902 427.783C646.546 420.717 654.486 416.431 662.497 415.174Z"/><path fill="white" d="M358.463 415.16C379.573 414.188 388.794 431.748 393.573 449.488C402.83 483.857 396.438 542.529 348.386 537.944C341.716 536.657 335.658 534.447 330.364 530.238C301.075 506.952 302.469 465.313 324.641 437.602C333.908 426.02 343.533 417.176 358.463 415.16Z"/></g></svg>