<?xml version="1.0" encoding="utf-8" ?><svg xmlns="http://www.w3.org/2000/svg" xmlns:xlink="http://www.w3.org/1999/xlink" width="1024" height="1024" viewBox="0 0 1024 1024"><path d="M473.847 780.257C473.875 783.868 472.303 787.828 471.247 791.226C460.305 826.422 427.281 851.704 390.25 851.861C365.906 851.963 341.685 851.952 317.401 851.964L279.958 851.978C266.383 851.973 251.918 852.454 238.674 849.287C224.843 846.005 212.123 839.132 201.798 829.362C182.825 811.402 173.083 788.724 173.008 762.757C172.965 747.869 172.994 732.976 173.012 718.091L173.067 638.934L172.955 439.5L173.005 332.897C173.015 317.093 172.214 285.909 174.514 271.757C177.422 254.46 185.486 238.443 197.65 225.805C215.156 207.725 237.508 199.035 262.43 199.025C285.983 199.016 309.551 199.076 333.103 199.07L371.968 199.066C402.754 199.078 425.993 200.27 449.182 224.142C460.194 235.478 473.952 256.741 473.989 272.94C473.433 277.692 474.465 287.772 474.507 293.374L474.431 344.579L474.412 441.988C474.408 457.987 474.009 475.926 474.498 491.791C474.847 490.374 475.16 488.215 475.427 486.72C476.342 551.896 475.61 618.732 475.599 684.041L475.609 739.103C475.611 750.895 476.271 769.398 473.847 780.257Z"/><path d="M540.519 718.267C540.1 696.228 540.428 673.109 540.433 650.966L540.45 526.053L540.41 468.036C540.407 461.36 540.672 453.938 540.408 447.376C538.377 396.902 578.444 356.75 628.833 356.929C668.888 357.071 711.709 356.899 752.007 356.901C795.42 356.669 830.107 385.499 839.7 427.539C841.44 435.546 841.322 445.73 841.374 454.119L841.388 676.959L841.426 739.083C841.437 750.438 842.022 769.444 840.033 780.015C836.729 797.79 828.202 814.177 815.541 827.083C805.274 837.507 792.416 845.007 778.289 848.812C760.751 853.426 729.685 851.984 710.693 851.981L634.765 852.008C628.607 852 623.598 851.858 616.744 851.124C577.819 846.955 545.312 813.688 541.023 774.938C541.032 774.681 541.041 774.424 541.05 774.166C540.087 770.076 540.355 757.999 540.36 753.122C540.349 741.504 540.402 729.885 540.519 718.267Z"/><path d="M736.783 109.184C745.883 107.836 759.559 112.857 766.615 118.449C811.902 154.339 794.475 242.642 734.783 250.573C661.523 252.786 656.775 119.419 736.783 109.184Z"/><path d="M581.768 167.174C581.873 167.155 581.977 167.135 582.082 167.116C639.391 163.52 673.276 245.273 640.107 287.968C632.041 298.35 620.773 303.566 609.118 305.05C595.382 306.303 580.941 301.701 570.028 293.362C551.656 279.42 539.721 258.625 536.951 235.728C532.922 203.985 547.146 171.439 581.768 167.174Z"/><path d="M864.436 200.199C893.853 198.065 913.946 215.37 918.694 244.213C925.398 284.941 894.416 327.448 853.612 333.489C823.357 335.479 803.497 318.623 799.408 288.496C793.987 248.559 823.459 205.22 864.436 200.199Z"/><path d="M473.989 272.94C476.346 283.643 475.545 305.107 475.518 316.894L475.546 375.545L475.513 448.721C475.514 459.17 476.095 476.739 475.427 486.72C475.16 488.215 474.847 490.374 474.498 491.791C474.009 475.926 474.408 457.987 474.412 441.988L474.431 344.579L474.507 293.374C474.465 287.772 473.433 277.692 473.989 272.94Z"/></svg>