<?xml version="1.0" encoding="utf-8" ?><svg xmlns="http://www.w3.org/2000/svg" xmlns:xlink="http://www.w3.org/1999/xlink" width="1024" height="1024" viewBox="0 0 1024 1024"><path d="M261.632 227.18C265.701 226.836 269.799 227.234 273.725 228.356C281.452 230.502 292.486 237.129 299.789 241.195C307.3 245.343 314.835 249.447 322.393 253.508L441.946 318.718L691.923 455.081L771.56 498.388C787.371 506.902 803.495 515.346 819.107 524.22C825.437 527.932 830.592 533.277 834.203 539.663C842.708 554.706 838.977 576.71 825.087 587.361C819.001 592.028 810.487 595.739 803.648 599.505C788.778 607.843 773.857 616.09 758.886 624.246L614.638 703.83C590.141 717.487 565.573 731.015 540.934 744.414L390.275 827.503C354.497 847.184 318.996 867.134 283.469 887.25C270.643 894.512 254.165 894.362 242.053 885.415C233.503 879.169 227.885 869.692 226.508 859.193C225.547 852.326 225.883 838.12 225.88 830.725L225.89 780.422L225.894 611.931L225.911 377.105L226.073 305.173C226.045 291.652 225.676 277.679 226.08 264.244C226.303 256.84 229.518 247.556 234.205 241.787C241.787 232.455 250.047 228.725 261.632 227.18Z"/><path d="M503.958 125.94C543.085 125.504 575.135 156.912 575.493 196.04C575.85 235.168 544.378 267.155 505.249 267.434C466.231 267.712 434.354 236.349 433.998 197.331C433.641 158.314 464.941 126.374 503.958 125.94Z"/><path d="M698.169 159.583C737.029 157.208 770.489 186.715 772.993 225.567C775.496 264.419 746.1 297.976 707.256 300.608C668.231 303.252 634.483 273.688 631.967 234.654C629.452 195.62 659.127 161.97 698.169 159.583Z"/><path d="M837.107 306.886C875.879 304.049 909.632 333.127 912.566 371.891C915.499 410.656 886.506 444.482 847.749 447.512C808.855 450.553 774.883 421.435 771.939 382.533C768.995 343.632 798.198 309.733 837.107 306.886Z"/></svg>