<svg xmlns="http://www.w3.org/2000/svg" viewBox="0 0 2048 2048" width="1024" height="1024" preserveAspectRatio="none" display="block"><path d="M1237.48 448.767a229.982 229.982 0 0128.03-31.065c44.96-41.395 102.97-61.401 163.91-58.734a230.901 230.901 0 01161.43 75.448 222.677 222.677 0 0157.81 161.131c-3.43 62.387-30.3 113.264-76.5 154.446 48.41 87.424 71.25 207.826 65.12 306.947-10.79 174.36-86.32 318.07-215.94 433.02-70.53 58.56-147.14 102.06-236.21 126.07-156.36 43.13-323.485 21.7-463.909-59.47-138.836-80.11-248.901-216.77-290.268-372.29a617.237 617.237 0 019.745-352.509c8.774-26.226 21.511-57.524 35.364-81.438-40.28-38.103-67.18-78.371-75.056-134.853a224.66 224.66 0 0143.273-165.684c42.768-55.973 96.525-81.081 164.508-90.447 73.196-7.859 158.859 27.371 200.994 88.56a1129.368 1129.368 0 0121.455-7.492 619.371 619.371 0 01340.014-12.701c18.54 4.552 49.14 12.548 66.23 21.061zM1055.44 1575.51c304.54-17.37 537.4-278.23 520.22-582.783-17.17-304.555-277.88-537.583-582.448-520.603C688.37 489.119 455.085 750.12 472.275 1054.95c17.19 304.83 278.341 537.95 583.165 520.56z"/><path d="M1215.29 717.362c35.43-4.928 69.49 12.802 98.45 32.231 80.86 54.24 159.94 179.844 96.93 273.627-16.41 24.41-44.33 44.14-73.72 49.58-2.41.48-4.82.9-7.25 1.27a98.725 98.725 0 01-72.2-18.24 115.438 115.438 0 01-22.26-21.51c-5.84-7.46-13.33-21.46-18.59-29.97a728.628 728.628 0 00-28.71-42.226c-9.26-12.584-19.72-24.921-29.81-36.846-8.33-9.846-18.21-19.798-24.88-30.817a118.45 118.45 0 01-15.36-43.329 123.061 123.061 0 0123.29-91.162c18.9-25.043 43.35-38.5 74.11-42.608zm29.16 184.072c28.31-3.01 48.85-28.348 45.94-56.667-2.91-28.319-28.17-48.952-56.5-46.145-28.48 2.822-49.24 28.243-46.31 56.706 2.92 28.463 28.42 49.132 56.87 46.106zM809.555 717.35l.619-.129a105.09 105.09 0 0174.015 20.382c53.532 39.328 63.227 122.842 18.754 172.515-16.397 18.315-32.91 37.294-47.325 57.234a592.039 592.039 0 00-26.504 40.818c-25.086 41.53-41.125 60.3-91.633 66.81-28.378.11-50.052-5.98-72.909-23.3a126.907 126.907 0 01-48.535-84.186c-9.06-67.745 33.9-144.428 82.922-189.522 29.387-27.032 70.374-55.418 110.596-60.622zm5.919 184.133c28.411-3.554 48.536-29.502 44.911-57.904-3.625-28.401-29.623-48.462-58.016-44.766-28.292 3.684-48.267 29.57-44.654 57.872 3.612 28.301 29.449 48.34 57.759 44.798zM804.639 1260.28c28.417-1.75 29.421 17.79 41.151 36.15 7.639 11.95 20.607 21.71 33.671 27.22a95.918 95.918 0 0072.425.63c20.693-8.4 36.907-24.21 44.049-44.96 2.509-7.28 8.965-15.21 16.535-17.36 35.41-10.03 38.15 19.59 50.83 36.81a78.81 78.81 0 0032.79 25.58c14.88 6.26 31.86 7.92 47.78 5.8 66.78-8.88 59.09-58.97 84.14-68.07 7.84-2.85 17.89-2.92 25.45.79 7.03 3.45 12.09 10.03 14.4 17.44 3.68 11.84.03 22.85-5.39 33.39-3.65 8.82-15.26 24.25-21.75 31.29a146.363 146.363 0 01-101.71 46.36c-48.98 1.59-80.2-12.95-115.13-45.41-66.386 66.35-171.512 60.6-228.422-15.59-17.003-22.76-30.114-62.08 9.181-70.07zM952.929 994.105c7.953-.765 13.388.776 20.432 4.802 31.269 17.863 62.299 36.193 93.339 54.453 26.68 15.69 53.7 30.89 80.19 46.88 2.56 1.55 5.72 4.22 7.23 6.84 15.56 27.08-14.05 39.56-32.83 50.41-15.49 8.8-30.85 17.82-46.07 27.08a3941.839 3941.839 0 00-67.58 39.73c-12.545 7.48-25.193 16.09-38.562 21.94-7.387 3.23-14.944 3.71-22.472.46-5.561-2.41-10.932-8.79-12.799-14.52-2.272-6.96-2.079-198.37-.965-215.82.27-4.23 1.276-7.63 3.447-11.3 3.849-6.491 9.636-9.022 16.64-10.955z"/></svg>