<?xml version="1.0" encoding="utf-8" ?><svg xmlns="http://www.w3.org/2000/svg" xmlns:xlink="http://www.w3.org/1999/xlink" width="1024" height="1024" viewBox="0 0 1024 1024"><path fill="white" d="M0 0L1024 0L1024 1024L0 1024L0 0Z"/><path d="M620.503 161.697C622.378 161.431 626.297 161.346 628.244 161.307C652.85 160.8 676.611 170.286 694.104 187.598C714.988 208.059 723.949 233.462 723.971 262.278C724.002 303.245 723.996 344.235 723.998 385.2L724.003 628.376L724.022 736.781C724.03 754.729 724.934 786.015 722.231 802.688C719.002 823.907 709.219 843.585 694.251 858.967C675.869 877.733 650.718 888.325 624.449 888.364C605.26 888.548 586.402 883.363 570.005 873.394C556.64 865.289 549.298 856.862 538.493 845.894C531.288 838.575 524.043 831.295 516.758 824.055L443.503 751.25C433.356 741.058 423.288 730.789 413.298 720.443C397.133 719.702 380.738 720.499 364.645 718.122C274.805 704.853 202.757 626.512 202.268 534.985C202.204 484.784 222.162 436.631 257.718 401.194C288.336 370.4 328.379 350.739 371.467 345.344C384.108 343.814 397.069 344 409.803 343.944C445.633 307.446 481.674 271.157 517.925 235.077L551.289 201.571C573.785 179.025 586.587 165.384 620.503 161.697Z"/><path fill="white" d="M620.05 273.412C620.539 273.898 620.63 274.661 620.627 275.322C620.537 298.956 620.56 322.59 620.557 346.224L620.586 491.209L620.801 785.545C608.942 775.712 589.811 755.887 578.401 744.573L500.28 666.902C489.404 656.159 473.392 638.344 461.878 629.973C419.809 604.703 380.188 639.841 334.752 598.116C317.295 582.309 307.021 560.078 306.296 536.538C305.466 512.72 312.477 488.857 329.092 471.33C336.221 463.914 344.583 457.792 353.806 453.236C381.544 439.279 398.037 444.319 426.439 443.475C439.796 443.129 452.73 438.718 463.516 430.831C468.936 426.916 475.904 419.062 480.83 414.125C491.935 402.996 502.658 391.384 513.72 380.209L584.191 309.558C595.995 297.729 608.648 285.53 620.05 273.412Z"/><path d="M778.714 364.626C793.333 363.972 798.639 371.744 805.632 382.821C817.58 401.833 826.259 422.711 831.308 444.59C844.202 499.843 834.224 557.961 803.64 605.749C797.873 614.871 794.653 619.131 783.835 621.567C767.109 622.576 754.846 611.235 757.755 594.403C758.95 587.484 766.812 577.186 770.379 570.727C796.436 523.541 797.311 464.412 771.45 416.932C764.398 403.984 750.329 390.431 761.502 374.752C766.141 368.152 771.038 365.924 778.714 364.626Z"/><path d="M250.332 241.654C250.745 241.621 251.158 241.591 251.571 241.564C283.339 239.494 299.226 267.637 299.736 295.76C300.197 321.179 286.715 339.802 260.719 341.039C251.733 340.714 243.808 338.829 236.339 333.564C224.725 325.379 213.025 307.044 210.634 293.139C208.625 281.705 211.323 269.944 218.115 260.529C225.921 249.669 237.318 243.701 250.332 241.654Z"/><path d="M163.526 290.679C180.611 289.058 190.973 298.027 201.859 309.651C210.808 319.206 217.492 326.034 218.973 339.762C220.188 351.023 217.904 361.22 210.668 370.135C201.962 380.693 193.055 383.901 180.034 385.451C167.14 385.663 155.295 381.723 145.192 373.85C135.145 365.784 124.625 355.325 123.149 341.864C120.344 316.263 138.008 293.854 163.526 290.679Z"/><path d="M134.105 386.648C143.849 385.464 150.401 387.709 158.966 392.31C181.805 404.551 198.06 429.441 184.34 454.692C177.413 467.44 163.017 470.328 150.089 473.828C137.213 475.947 125.239 474.499 114.26 467.043C104.488 460.442 97.8301 450.142 95.8238 438.521C93.6677 426.597 96.412 414.307 103.436 404.432C110.94 393.936 121.615 388.724 134.105 386.648Z"/></svg>