<svg xmlns="http://www.w3.org/2000/svg" width="1024" height="1024"><path d="M410.039 345.319c7.672-8.763 78.561-79.834 81.705-81.355.724 1.116 2.589 8.272 3.098 10.092 8.499 30.393 35.764 46.561 54.556 69.899-11.807 14.284-27.047 27.58-39.711 41.228-13.793 14.866-27.903 29.6-42.266 43.902-3.347 3.333-8.554 5.799-12.586 8.125-16.284 9.206-28.522 8.089-46.722 7.294-16.942-.021-20.857-.843-37.767 3.233-28.524 9.53-50.054 26.722-59.378 56.118-13.832 43.605 2.751 88.133 43.817 109.495 33.77 17.566 66.809-.771 99.866 13.82 13.845 6.343 27.417 22.754 38.636 33.714l85.927 85.479 24.573 24.293c5.079 5.028 11.641 11.976 17.139 16.062.54-50.377.116-102.122-.207-152.547l-.064-52.215c.017-8.48-.307-20.91.361-29.101 28.738-7.289 39.003-14.09 60.827-34.681 4.388-4.141 11.315-11.646 16.008-14.978 5.778 5.514 21.382 20.825 26.012 26.573.145 15.011.175 30.022.091 45.033l-.012 123.67.021 60.961c-.023 11.764.147 23.739-.607 35.468-1.505 23.441-11.62 47.389-27.919 64.34a99.725 99.725 0 01-69.528 30.426c-29.694.384-56.312-10.799-76.952-31.836-13.013-13.262-26.084-26.794-39.323-39.814a6543.157 6543.157 0 01-52.152-51.764 1786.02 1786.02 0 01-43.898-44.314l-.753-.068c-7.728-.669-15.867.084-23.386-.468-13.095-.96-33.265-1.581-45.436-6.2l-5.748-1.732c-3.051-.675-10.056-3.219-13.166-4.387a187.19 187.19 0 01-63.379-39.988c-118.982-112.272-47.413-301.013 109.325-322.624 12.947-1.785 25.993-.855 38.998-1.153z"/><path d="M592.64 161.237c29.985-1.195 49.271 12.711 68.608 33.76 9.607 10.456 21.097 20.663 30.877 31.088 7.449 7.939 10.456 3.586 16.829-2.812l27.66-27.865c21.228-21.438 33.772-33.423 65.896-34.372 42.371-1.252 75.174 32.026 75.682 73.98.434 35.826-15.577 48.765-38.404 72.053l-34.275 35.143c15.614 18.211 35.476 34.57 52.02 52.048 12.084 12.767 19.302 28.205 20.655 45.692a79.602 79.602 0 01-19.129 58.926c-13.668 15.7-32.484 24.18-53.084 25.607-33.484.29-47.101-9.69-69.694-32.508-10.693-10.798-26.454-27.078-37.533-36.923-5.204 4.32-10.172 10.64-15.184 15.366-11.261 10.617-22.305 23.414-34.164 33.259-12.327 8.905-30.407 20.093-45.975 21.153-67.451 4.591-108.937-72.664-66.821-125.954 4.171-5.278 9.466-9.364 13.76-14.218 12.901-14.583 29.129-27.515 41.581-42.301-11.062-10.549-21.816-21.606-32.59-32.335-20.531-20.447-37.925-33.257-40.238-64.482-3.387-45.712 28.298-80.882 73.523-84.305zM249.065 243.156c20.916-2.96 39.993 11.098 46.735 30.629 2.028 6.255 2.623 12.817 3.627 19.293 2.685 17.307-3.983 34.885-19.238 44.191-6.046 3.688-10.868 4.468-17.805 5.284-10.223.097-17.731-2.14-26.442-7.806-10.649-7.368-23.152-27.181-25.367-39.833-4.485-25.618 14.251-47.639 38.49-51.758zM217.768 358.209c-.061 2.525-3.389 8.25-4.812 10.433-14.369 22.031-45.17 23.015-65.254 8.439-9.869-7.189-22.469-19.199-24.298-31.919-5.954-41.398 43.028-72.794 73.814-38.846 7.33 8.082 18.72 17.693 20.611 28.866l-.253.886c-.497 1.663.242 4.119.769 5.933 1.613 5.556-1.832 11.6-.577 16.208zM133.317 388.092c7.779-.808 14.003-.202 21.442 3.459 24.428 12.022 43.59 35.338 30.379 63.154-6.589 13.871-19.533 15.866-33.261 20.21-.653.178-1.311.338-1.973.48-24.359 5.132-48.975-9.487-53.825-34.341a45.04 45.04 0 016.649-33.931c7.478-11.095 17.683-16.505 30.589-19.031z"/><path d="M217.768 358.209c-1.255-4.608 2.19-10.652.577-16.208-.527-1.814-1.266-4.27-.769-5.933l.253-.886c2.625 7.518 2.452 15.496-.061 23.027z"/></svg>